<?xml version="1.0" encoding="UTF-8"?>
<svg xmlns="http://www.w3.org/2000/svg" viewBox="1353 262 178 200">
  <path
    d="M1427.6,308L1424.8,311L1423.8999999999999,317L1429.6999999999998,319.4L1435.4999999999998,322.5L1443.2999999999997,326.1L1450.9999999999998,327L1454.7999999999997,330.2L1459.0999999999997,330.8L1465.9999999999998,332.3L1470.5999999999997,332.2L1470.6999999999996,329.7L1469.1999999999996,325.59999999999997L1468.9999999999995,322.9L1472.0999999999995,321.5L1473.5999999999995,326.6L1473.9999999999995,327.8L1479.4999999999995,330.3L1482.6999999999996,329.3L1487.3999999999996,329.7L1491.8999999999996,329.5L1491.3999999999996,325.6L1488.7999999999997,323.5L1492.9999999999998,322.7L1496.8999999999999,317.9L1502.3,313.9L1507.2,315.4L1510.4,312.7L1514,316.7L1512.8,319.4L1518.8999999999999,320.4L1519.8999999999999,322.79999999999995L1518.1999999999998,323.99999999999994L1519.6,327.8999999999999L1515.3999999999999,326.7999999999999L1509.1999999999998,331.1999999999999L1510.1,334.89999999999986L1508.1,340.29999999999984L1508.3999999999999,343.39999999999986L1506.8,348.6999999999999L1502.2,347.1999999999999L1503.1000000000001,353.89999999999986L1502.1000000000001,356.09999999999985L1503.1000000000001,358.79999999999984L1500.6000000000001,360.29999999999984L1496.2,350.09999999999985L1494.7,350.09999999999985L1494.4,354.29999999999984L1490.8000000000002,350.89999999999986L1492.0000000000002,347.29999999999984L1494.4000000000003,346.89999999999986L1496.0000000000002,341.4999999999999L1492.6000000000001,340.39999999999986L1487.5000000000002,340.4999999999999L1482.1000000000001,339.5999999999999L1480.9,335.0999999999999L1478.2,334.7999999999999L1473.3,331.9999999999999L1472.1,336.39999999999986L1476.6999999999998,339.79999999999984L1473.6999999999998,342.1999999999998L1472.7999999999997,344.49999999999983L1476.4999999999998,346.1999999999998L1476.1999999999998,350.0999999999998L1478.7999999999997,354.8999999999998L1480.3999999999996,360.1999999999998L1479.8999999999996,362.5999999999998L1476.0999999999997,362.4999999999998L1469.4999999999998,363.7999999999998L1470.3999999999999,368.5999999999998L1467.9999999999998,372.3999999999998L1460.4999999999998,376.7999999999998L1455.1999999999998,384.2999999999998L1451.3999999999999,388.3999999999998L1446.3999999999999,392.5999999999998L1446.6999999999998,395.4999999999998L1444.1,397.0999999999998L1439.3,399.3999999999998L1436.7,399.6999999999998L1435.5,404.5999999999998L1437.4,412.9999999999998L1438.1000000000001,418.2999999999998L1436.2,424.3999999999998L1436.9,435.2999999999998L1434,435.5999999999998L1431.7,440.4999999999998L1433.6000000000001,442.69999999999976L1428.5000000000002,444.4999999999998L1426.8000000000002,448.7999999999998L1424.6000000000001,450.69999999999976L1419.0000000000002,444.69999999999976L1415.9000000000003,435.69999999999976L1413.4000000000003,429.19999999999976L1411.2000000000003,426.19999999999976L1407.8000000000002,419.9999999999998L1405.8000000000002,411.9999999999998L1404.4,407.9999999999998L1398.5,399.19999999999976L1395,386.69999999999976L1392.4,378.4999999999998L1391.6000000000001,370.69999999999976L1389.9,364.69999999999976L1382.2,368.59999999999974L1378.2,367.7999999999997L1370.1000000000001,359.9999999999997L1372.5000000000002,357.6999999999997L1370.6000000000001,355.1999999999997L1363.5000000000002,349.6999999999997L1366.7000000000003,345.3999999999997L1378.8000000000002,345.3999999999997L1377.0000000000002,339.8999999999997L1373.5000000000002,336.6999999999997L1372.1000000000001,331.6999999999997L1368.1000000000001,328.8999999999997L1373.0000000000002,322.0999999999997L1379.5000000000002,322.5999999999997L1384.0000000000002,315.8999999999997L1386.2000000000003,309.3999999999997L1390.1000000000004,302.8999999999997L1389.1000000000004,298.29999999999967L1392.9000000000003,294.5999999999997L1387.8000000000004,291.49999999999966L1384.9000000000003,287.0999999999997L1381.6000000000004,281.49999999999966L1383.6000000000004,278.69999999999965L1392.1000000000004,280.29999999999967L1397.8000000000004,279.29999999999967L1401.6000000000004,273.8999999999997L1409.3000000000004,281.4999999999997L1410.1000000000004,286.6999999999997L1413.1000000000004,289.9999999999997L1413.7000000000003,293.2999999999997L1409.6000000000004,292.39999999999975L1412.8000000000004,299.4999999999998L1419.0000000000005,303.4999999999998L1427.6000000000004,307.9999999999998Z"
    fill="rgba(0,255,136,0.07)"
    stroke="#00ff88"
    stroke-opacity="0.48"
    stroke-width="0.75"
    stroke-linejoin="round"
    stroke-linecap="round"
  />
</svg>